<svg width="146" height="52" viewBox="0 0 146 52" fill="none" xmlns="http://www.w3.org/2000/svg">
<path d="M54.43 29.873H49.8005L48.9403 32H45.781L50.6138 21.052H53.6636L58.512 32H55.2902L54.43 29.873ZM53.5228 27.5895L52.1152 24.0862L50.7076 27.5895H53.5228ZM62.0119 32.219C61.2091 32.219 60.4792 32.0834 59.8223 31.8123C59.1655 31.5308 58.6285 31.1294 58.2114 30.608L59.9005 28.6061C60.4844 29.3673 61.1153 29.7478 61.793 29.7478C62.2413 29.7478 62.5802 29.6123 62.8096 29.3412C63.0494 29.0701 63.1693 28.6739 63.1693 28.1526V23.4449H59.3844V21.052H66.2348V27.9649C66.2348 29.3829 65.875 30.4464 65.1556 31.1554C64.4466 31.8645 63.3987 32.219 62.0119 32.219ZM78.7411 21.052V32H76.1918L71.3591 26.1663V32H68.3249V21.052H70.8742L75.707 26.8857V21.052H78.7411ZM88.2607 29.873H83.6312L82.771 32H79.6117L84.4445 21.052H87.4943L92.3427 32H89.1209L88.2607 29.873ZM87.3535 27.5895L85.9459 24.0862L84.5383 27.5895H87.3535Z" fill="white"/>
<path d="M95.6814 21.052H96.8388V32H95.6814V21.052ZM109.55 21.052V32H108.596L101.558 23.1165V32H100.401V21.052H101.355L108.409 29.9355V21.052H109.55ZM117.878 32.0938C116.794 32.0938 115.814 31.854 114.938 31.3744C114.073 30.8948 113.39 30.2327 112.889 29.3881C112.399 28.5331 112.154 27.5791 112.154 26.526C112.154 25.4729 112.399 24.5241 112.889 23.6795C113.39 22.8245 114.078 22.1572 114.954 21.6776C115.829 21.198 116.81 20.9582 117.894 20.9582C118.707 20.9582 119.458 21.0937 120.146 21.3648C120.834 21.6359 121.418 22.0321 121.898 22.5534L121.163 23.2885C120.308 22.4231 119.228 21.9904 117.925 21.9904C117.06 21.9904 116.273 22.1885 115.564 22.5847C114.855 22.9809 114.297 23.5231 113.89 24.2113C113.494 24.8994 113.296 25.671 113.296 26.526C113.296 27.381 113.494 28.1526 113.89 28.8407C114.297 29.5289 114.855 30.0711 115.564 30.4673C116.273 30.8635 117.06 31.0616 117.925 31.0616C119.239 31.0616 120.318 30.6237 121.163 29.7478L121.898 30.4829C121.418 31.0043 120.829 31.4057 120.13 31.6872C119.442 31.9583 118.692 32.0938 117.878 32.0938Z" fill="white"/>
<path d="M37.146 28.9695C37.146 30.037 36.6716 30.8255 35.907 31.515C35.1896 32.162 34.2474 32.6954 33.2368 33.2677C33.1456 33.3193 33.0538 33.3713 32.9616 33.4237C31.3219 34.3552 29.5346 35.4202 28.7635 37.2439C27.9825 35.4739 26.2085 34.4143 24.5853 33.4788C24.5081 33.4343 24.4312 33.3901 24.3547 33.3461C23.3282 32.7559 22.3681 32.2039 21.6399 31.5372C20.8739 30.836 20.3987 30.0378 20.3987 28.9695C20.3987 27.8645 20.9039 26.5472 21.719 25.0851C22.529 23.6319 23.6126 22.0909 24.7113 20.5436C24.7671 20.465 24.823 20.3863 24.8789 20.3077C25.9165 18.8472 26.9555 17.3846 27.7466 16.0207C28.1619 15.3047 28.5194 14.5988 28.7724 13.9202C29.0254 14.5988 29.3829 15.3047 29.7981 16.0207C30.5892 17.3846 31.6282 18.8471 32.6658 20.3077C32.7217 20.3863 32.7776 20.465 32.8334 20.5436C33.9321 22.0909 35.0157 23.6319 35.8258 25.0851C36.6408 26.5472 37.146 27.8645 37.146 28.9695Z" stroke="white" stroke-width="0.797488"/>
<path d="M34.1255 27.0883C34.1255 30.0525 31.7278 32.4541 28.7719 32.4541C25.816 32.4541 23.4183 30.0525 23.4183 27.0883C23.4183 26.4181 23.7201 25.7781 24.2312 25.1313C24.7438 24.4827 25.4348 23.8665 26.1567 23.2416C26.2229 23.1843 26.2894 23.1268 26.3561 23.0693C27.0032 22.5106 27.6635 21.9405 28.1731 21.3585C28.3997 21.0997 28.6062 20.828 28.7719 20.5424C28.9376 20.828 29.1441 21.0997 29.3707 21.3585C29.8803 21.9405 30.5406 22.5106 31.1877 23.0693C31.2544 23.1268 31.3209 23.1843 31.3871 23.2416C32.109 23.8665 32.8 24.4827 33.3126 25.1313C33.8237 25.7781 34.1255 26.4181 34.1255 27.0883Z" stroke="white" stroke-width="0.797488"/>
<circle cx="28.7722" cy="29.6271" r="2.58857" fill="white"/>
</svg>
